<?xml version="1.0" encoding="utf-8"?>
<!-- Generator: Adobe Illustrator 24.0.3, SVG Export Plug-In . SVG Version: 6.00 Build 0)  -->
<svg version="1.1" id="Layer_1" xmlns="http://www.w3.org/2000/svg" xmlns:xlink="http://www.w3.org/1999/xlink" x="0px" y="0px"
	 viewBox="0 0 44.2 84.9" style="enable-background:new 0 0 44.2 84.9;" xml:space="preserve">
<style type="text/css">
	.st0{fill:#FFFFFF;}
</style>
<g id="_x32_A7OTX.tif_1_">
	<g>
		<path class="st0" d="M44.2,0.6c0,4.5,0,9,0,13.4c-0.3,0.1-0.5,0.1-0.7,0.1c-2.3,0-4.7,0-7,0c-1,0-2.1,0.1-3.1,0.3
			c-0.1,0-0.2,0.1-0.3,0.1c-2.3,0.6-3.6,2.1-4,4.4c-0.1,0.8-0.2,1.5-0.2,2.3c0,3.1,0,6.2,0,9.3c0,0.2,0,0.4,0,0.6c1,0,2,0,2.9,0
			c1,0,2,0,3,0c1,0,2,0,2.9,0c1,0,2,0,3,0c1,0,1.9,0,2.9,0c0,0.1,0,0.2,0,0.3c-0.6,4.9-1.3,9.8-1.9,14.6c-0.3,0.2-0.6,0.1-0.8,0.1
			c-3.7,0-7.5,0-11.2,0c-0.3,0-0.5,0-0.8,0c0,0.2-0.1,0.3-0.1,0.5c0,0.2,0,0.5,0,0.7c0,12.2,0,24.4,0,36.7c0,0.3,0,0.6,0,0.8
			c-0.1,0.1-0.1,0.1-0.1,0.1c0,0,0,0-0.1,0c-0.1,0-0.2,0-0.3,0c-5,0-9.9,0-14.9,0c0,0-0.1,0-0.2-0.1c0-0.1,0-0.3,0-0.4
			c0-0.2,0-0.4,0-0.6c0-12.2,0-24.5,0-36.7c0-0.3,0-0.6,0-0.9c-0.7-0.1-1.3-0.1-1.9-0.1c-0.6,0-1.3,0-1.9,0c-0.6,0-1.2,0-1.8,0
			s-1.2,0-1.8,0s-1.2,0-1.8,0c-0.6,0-1.3,0-1.9,0c-0.6,0-1.2,0-1.8,0C0,45.5,0,36.6,0,31.7c0-0.2,0-0.4,0.1-0.6c2.2,0,4.3,0,6.5,0
			c2.2,0,4.3,0,6.4,0c0.2-0.3,0.1-0.5,0.1-0.8c0-3.2,0-6.5,0-9.7c0-1.3,0-2.6,0.2-3.9c0.4-3.4,1.4-6.7,3.4-9.5C19,4,22.2,2,25.9,0.9
			C28.1,0.3,30.3,0,32.6,0c3.3,0,6.5,0.1,9.8,0.4C42.9,0.4,43.6,0.5,44.2,0.6z"/>
	</g>
</g>
</svg>
