<?xml version="1.0" encoding="utf-8"?>
<!-- Generator: Adobe Illustrator 24.0.3, SVG Export Plug-In . SVG Version: 6.00 Build 0)  -->
<svg version="1.1" id="Layer_1" xmlns="http://www.w3.org/2000/svg" xmlns:xlink="http://www.w3.org/1999/xlink" x="0px" y="0px"
	 viewBox="0 0 94.4 94.2" style="enable-background:new 0 0 94.4 94.2;" xml:space="preserve">
<style type="text/css">
	.st0{fill:#FFFFFF;}
</style>
<g id="unyowT.tif_1_">
	<g>
		<path class="st0" d="M47.2,0c5,0,10-0.1,15,0c3.4,0.1,6.9,0.2,10.3,0.8c3,0.6,6,1.5,8.7,3c4,2.2,7.2,5.4,9.4,9.4
			c1.4,2.5,2.3,5.2,2.8,8c0.5,2.8,0.7,5.6,0.8,8.5c0.4,9.2,0.2,18.4,0.2,27.6c0,3.7-0.1,7.4-0.4,11.1c-0.3,4.5-1.3,8.8-3.6,12.8
			c-2.3,4-5.4,7.1-9.5,9.3c-2.5,1.4-5.3,2.2-8.1,2.8c-3.1,0.6-6.2,0.8-9.4,0.8c-8.7,0.1-17.5,0.2-26.2,0.2c-3.7,0-7.4-0.2-11.1-0.4
			c-4.3-0.3-8.5-1.2-12.4-3.2c-1.9-1-3.6-2.2-5.2-3.7c-1.5-1.5-2.9-3-4-4.9c-1.9-3.1-3-6.5-3.6-10C0.2,68.1,0.1,64.2,0,60.4
			C0,52.6,0,44.9,0,37.1c0-4.4,0.1-8.8,0.6-13.1c0.5-4.2,1.6-8.3,4-11.9c2.5-3.9,5.8-6.9,9.9-8.9C18.1,1.5,22,0.7,26,0.4
			C33-0.2,40.1,0,47.2,0z M8.5,47.3C8.5,47.3,8.5,47.3,8.5,47.3c0.1,2,0.1,4.1,0.1,6.1c0,3.4,0.1,6.8,0.1,10.3c0.1,3,0.3,6.1,1,9
			c0.9,3.4,2.6,6.3,5.4,8.6c2.4,2,5.3,3,8.4,3.6c2.7,0.5,5.5,0.5,8.2,0.6c3.7,0.1,7.3,0.1,11,0.1c3.8,0,7.6,0,11.4,0
			c3.2,0,6.5-0.1,9.7-0.2c3-0.1,6-0.2,8.9-1c1.9-0.5,3.6-1.2,5.2-2.3c4-2.7,6.1-6.6,7-11.3c0.4-2.4,0.5-4.9,0.6-7.3
			c0.1-3.8,0.2-7.5,0.2-11.3c0-7.7,0.1-15.3-0.2-23c-0.1-2.5-0.3-5-0.9-7.5c-0.7-2.8-1.9-5.4-3.9-7.5c-1.5-1.6-3.2-2.8-5.2-3.7
			c-2.8-1.2-5.7-1.7-8.7-1.8C62,8.7,57.1,8.5,52.2,8.5c-7.6,0-15.2,0.1-22.8,0.2c-3.2,0-6.3,0.4-9.3,1.4c-2.9,1-5.3,2.7-7.3,5
			c-2.2,2.6-3.2,5.8-3.6,9.1c-0.3,2.5-0.5,4.9-0.5,7.4C8.6,36.9,8.5,42.1,8.5,47.3z"/>
		<path class="st0" d="M47.2,22.9c13.3,0,24.1,10.7,24.2,24c0.1,13.5-10.7,24.3-23.9,24.4C33.9,71.5,23,60.5,22.9,47.2
			C22.9,33.7,33.6,22.9,47.2,22.9z M62.8,47.1c0.1-8.6-7.1-15.4-15.2-15.7c-9-0.2-16.1,7.2-16.1,15.6c0,8.5,7.1,15.9,16.1,15.7
			C55.9,62.6,62.9,55.6,62.8,47.1z"/>
		<path class="st0" d="M78,22c0.2,2.7-2.4,5.7-5.7,5.6c-3.1-0.1-5.6-2.5-5.6-5.7c0-3.3,2.7-5.7,5.8-5.7C75.6,16.3,78.2,19.1,78,22z"
			/>
	</g>
</g>
</svg>
