<?xml version="1.0" encoding="utf-8"?>
<!-- Generator: Adobe Illustrator 17.0.0, SVG Export Plug-In . SVG Version: 6.00 Build 0)  -->
<!DOCTYPE svg PUBLIC "-//W3C//DTD SVG 1.1//EN" "http://www.w3.org/Graphics/SVG/1.1/DTD/svg11.dtd">
<svg version="1.1" id="Layer_1" xmlns="http://www.w3.org/2000/svg" xmlns:xlink="http://www.w3.org/1999/xlink" x="0px" y="0px"
	 width="112.493px" height="112.493px" viewBox="0 0 112.493 112.493" enable-background="new 0 0 112.493 112.493"
	 xml:space="preserve">
<g>
	<circle fill="transparent" cx="55.993" cy="56.246" r="56.247"/>
	<g>
		<path fill="#ffffff" d="M56.065,103.685c-2.369,0-4.763-0.177-7.176-0.542c-12.605-1.909-23.711-8.612-31.274-18.874
			S6.938,61.413,8.847,48.809c1.908-12.604,8.611-23.711,18.874-31.274c10.262-7.563,22.856-10.678,35.46-8.768
			c1.896,0.287,3.201,2.057,2.914,3.954s-2.055,3.202-3.954,2.914c-10.771-1.631-21.531,1.03-30.299,7.492
			c-8.769,6.462-14.496,15.952-16.127,26.722C12.349,72.081,27.697,92.907,49.93,96.274c22.233,3.368,43.059-11.982,46.426-34.214
			c0.287-1.897,2.056-3.201,3.954-2.914c1.896,0.287,3.201,2.057,2.914,3.954C99.649,86.707,79.249,103.685,56.065,103.685z"/>
	</g>
	<path fill="#ffffff" d="M57.573,75.702c-0.041,0-0.082,0-0.123-0.002c-1.509-0.037-2.92-0.751-3.844-1.945L34.569,49.16
		l7.935-6.141L57.768,62.74l46.355-55.349l7.624,6.523L61.385,73.946C60.431,75.062,59.037,75.702,57.573,75.702z"/>
</g>
</svg>
