<?xml version="1.0" encoding="utf-8"?>
<!-- Generator: Adobe Illustrator 24.0.3, SVG Export Plug-In . SVG Version: 6.00 Build 0)  -->
<svg version="1.1" id="Layer_1" xmlns="http://www.w3.org/2000/svg" xmlns:xlink="http://www.w3.org/1999/xlink" x="0px" y="0px"
	 viewBox="0 0 94.4 75" style="enable-background:new 0 0 94.4 75;" xml:space="preserve">
<style type="text/css">
	.st0{fill:#FFFFFF;}
</style>
<g id="Ww2ERy.tif_2_">
	<g>
		<path class="st0" d="M47.2,52.4c-1.8-1.2-3.6-2.5-5.4-3.7C28.1,39.3,14.5,30,0.8,20.7C0.2,20.2,0,19.8,0,19.1c0-2.3,0-4.6,0-6.9
			c0-5.8,4-10.7,9.7-11.9C10.6,0.1,11.5,0,12.4,0C35.6,0,58.8,0,82,0c6.9,0,12.3,5.4,12.4,12.3c0,2.3,0,4.6,0,6.9
			c0,0.6-0.2,1-0.7,1.4c-8.2,5.6-16.4,11.2-24.6,16.8C62,42.2,55,47,48,51.8C47.8,52,47.5,52.2,47.2,52.4z"/>
		<path class="st0" d="M94.4,29.4c0,0.4,0,0.7,0,0.9c0,10.7,0,21.4,0,32.1c0,3.6-1.2,6.7-3.8,9.2c-2.2,2.1-4.8,3.2-7.8,3.4
			c-0.4,0-0.8,0-1.2,0c-22.9,0-45.8,0-68.8,0c-2.6,0-5.1-0.6-7.3-2.1c-3.3-2.3-5.1-5.5-5.4-9.5c0-0.4,0-0.7,0-1.1
			C0,51.7,0,41,0,30.2c0-0.2,0-0.4,0-0.8c0.4,0.3,0.7,0.4,1,0.6c14.4,9.8,28.8,19.7,43.1,29.5c2.5,1.7,3.6,1.7,6.1,0
			C64.6,49.7,79,39.9,93.4,30C93.7,29.8,93.9,29.7,94.4,29.4z"/>
	</g>
</g>
</svg>
