<?xml version="1.0" encoding="utf-8"?>
<!-- Generator: Adobe Illustrator 24.0.3, SVG Export Plug-In . SVG Version: 6.00 Build 0)  -->
<svg version="1.1" id="Layer_1" xmlns="http://www.w3.org/2000/svg" xmlns:xlink="http://www.w3.org/1999/xlink" x="0px" y="0px"
	 viewBox="0 0 106.8 97.5" style="enable-background:new 0 0 106.8 97.5;" xml:space="preserve">
<style type="text/css">
	.st0{fill:#FFFFFF;}
</style>
<g id="fnsdFB.tif_1_">
	<g>
		<path class="st0" d="M37.4,31.6c-5.8-8.8-3.9-19.9,3.1-26.3C47-0.6,56.7-2,65,3.2c8.2,5.1,11.6,14.9,8.4,24.2
			c-2.5,7.3-11.4,15.6-24,12.9c-2.4,4.1-4.8,8.3-7.2,12.4c-2,3.4-4,6.9-6,10.3c-0.4,0.6-0.4,1,0.1,1.5c1.5,1.8,2.5,3.8,3.2,5.9
			c0.1,0.4,0.3,0.7,0.4,1.1c9,0,17.9,0,26.7,0c0.7-1.6,1.2-3.2,2-4.7c3.7-7.2,11.5-11.4,19.5-10.7c7,0.6,12.4,4,15.9,10
			c4.3,7.4,3.5,16.4-1.7,22.9c-4.3,5.3-9.9,7.9-16.7,7.6c-6.9-0.3-12.4-3.5-16.2-9.3c-0.5-0.8-1.1-1.1-2-1.1c-9.5,0-19.1,0-28.6,0
			c-0.1,0-0.1,0-0.3,0c-2.8,5.6-7.4,9.1-13.3,10.7c-4.7,1.2-9.3,0.7-13.6-1.4C2.9,91.3-1.9,81.6,0.7,71.7c2.5-9.3,11.8-16,21.9-14.8
			C27.6,48.5,32.5,40.1,37.4,31.6z"/>
	</g>
</g>
</svg>
