<?xml version="1.0" encoding="utf-8"?>
<!-- Generator: Adobe Illustrator 17.0.0, SVG Export Plug-In . SVG Version: 6.00 Build 0)  -->
<!DOCTYPE svg PUBLIC "-//W3C//DTD SVG 1.1//EN" "http://www.w3.org/Graphics/SVG/1.1/DTD/svg11.dtd">
<svg version="1.1" id="Layer_1"
	xmlns="http://www.w3.org/2000/svg"
	xmlns:xlink="http://www.w3.org/1999/xlink" x="0px" y="0px" width="577.734px" height="153.439px" viewBox="0 0 577.734 153.439" enable-background="new 0 0 577.734 153.439" xml:space="preserve">
	<defs>
		<linearGradient id="SVGID_1_" gradientUnits="userSpaceOnUse" x1="-426.4718" y1="61.8204" x2="-428.4939" y2="-53.4385">
			<stop offset="0" style="stop-color:#18C5FF"/>
			<stop offset="1" style="stop-color:#00AAD8"/>
		</linearGradient>
		<linearGradient id="SVGID_2_" gradientUnits="userSpaceOnUse" x1="-320.6817" y1="59.9644" x2="-322.7038" y2="-55.2945">
			<stop offset="0" style="stop-color:#18C5FF"/>
			<stop offset="1" style="stop-color:#00AAD8"/>
		</linearGradient>
		<linearGradient id="SVGID_3_" gradientUnits="userSpaceOnUse" x1="-245.3642" y1="58.6431" x2="-247.3863" y2="-56.6159">
			<stop offset="0" style="stop-color:#18C5FF"/>
			<stop offset="1" style="stop-color:#00AAD8"/>
		</linearGradient>
		<linearGradient id="SVGID_4_" gradientUnits="userSpaceOnUse" x1="-156.1915" y1="57.0786" x2="-158.2136" y2="-58.1803">
			<stop offset="0" style="stop-color:#18C5FF"/>
			<stop offset="1" style="stop-color:#00AAD8"/>
		</linearGradient>
		<linearGradient id="SVGID_5_" gradientUnits="userSpaceOnUse" x1="-27.2266" y1="54.8161" x2="-29.2487" y2="-60.4428">
			<stop offset="0" style="stop-color:#18C5FF"/>
			<stop offset="1" style="stop-color:#00AAD8"/>
		</linearGradient>
		<linearGradient id="SVGID_6_" gradientUnits="userSpaceOnUse" x1="84.5944" y1="52.8543" x2="82.5723" y2="-62.4046">
			<stop offset="0" style="stop-color:#18C5FF"/>
			<stop offset="1" style="stop-color:#00AAD8"/>
		</linearGradient>
		<linearGradient id="SVGID_7_" gradientUnits="userSpaceOnUse" x1="162.479" y1="51.4879" x2="160.4569" y2="-63.771">
			<stop offset="0" style="stop-color:#18C5FF"/>
			<stop offset="1" style="stop-color:#00AAD8"/>
		</linearGradient>
		<linearGradient id="SVGID_8_" gradientUnits="userSpaceOnUse" x1="250.2819" y1="49.9475" x2="248.2598" y2="-65.3114">
			<stop offset="0" style="stop-color:#18C5FF"/>
			<stop offset="1" style="stop-color:#00AAD8"/>
		</linearGradient>
		<linearGradient id="SVGID_9_" gradientUnits="userSpaceOnUse" x1="343.0609" y1="48.3198" x2="341.0388" y2="-66.9391">
			<stop offset="0" style="stop-color:#18C5FF"/>
			<stop offset="1" style="stop-color:#00AAD8"/>
		</linearGradient>
	</defs>
	<symbol id="logo_playalong" viewBox="-493.514 -152.091 882.994 234.512">
		<g>
			<g>
				<g>
					<path fill="url(#SVGID_1_)" d="M-447.763-78.286l-1.038,110.48c-4.459-1.736-8.429-3.583-11.931-5.543
					c-3.492-1.96-6.179-3.884-8.042-5.772c2.642-1.247,4.795-3.095,6.454-5.548c1.664-2.453,2.637-4.983,2.927-7.589
					c0.254-2.316,0.036-4.571-0.646-6.769c-0.687-2.199-1.72-4.179-3.095-5.94c-1.374-1.766-3.059-3.212-5.039-4.347
					c-1.985-1.135-4.102-1.827-6.362-2.072c-2.611-0.29-4.998-0.005-7.166,0.855c-2.168,0.86-4.072,2.133-5.721,3.817
					c-1.649,1.685-2.972,3.644-3.97,5.879c-0.998,2.229-1.639,4.611-1.914,7.146c-0.763,6.943,0.585,13.478,4.052,19.611
					c3.466,6.128,8.668,11.59,15.605,16.384c6.932,4.79,15.453,8.841,25.551,12.149c10.098,3.313,21.398,5.655,33.888,7.034
					c8.821,0.972,16.435,0.896,22.843-0.224c6.413-1.125,11.742-3.14,15.992-6.037c4.245-2.901,7.507-6.571,9.783-11.004
					c2.27-4.433,3.726-9.508,4.357-15.224c0.265-2.387,0.305-5.329,0.117-8.826c-0.188-3.502-0.728-7.187-1.624-11.055
					c-0.896-3.868-2.265-7.772-4.113-11.712c-1.853-3.94-4.296-7.538-7.329-10.801s-6.749-6.037-11.137-8.312
					c-4.398-2.28-9.63-3.68-15.717-4.204l-12.516-1.16l0.3-47.412L-447.763-78.286z M-394.005,24.95
					c-0.534,4.846-2.672,8.525-6.413,11.045c-3.746,2.514-8.398,3.466-13.977,2.85l0.397-43.447
					c4.632,0.799,8.322,2.27,11.086,4.408c2.769,2.133,4.856,4.596,6.26,7.39c1.405,2.789,2.275,5.741,2.611,8.851
					C-393.704,19.163-393.689,22.131-394.005,24.95z"/>
					<path fill="url(#SVGID_2_)" d="M-292.112-39.736c-0.921-3.649-2.509-7.1-4.779-10.348c-2.27-3.247-4.922-6.143-7.96-8.688
					c-3.039-2.54-6.327-4.611-9.864-6.21c-3.543-1.598-7.044-2.535-10.516-2.815c-4.459-0.356-8.296,0.051-11.523,1.216
					c-3.232,1.166-5.955,2.932-8.174,5.314c-2.219,2.377-3.94,5.339-5.146,8.897c-1.211,3.553-1.99,7.507-2.336,11.859
					c-0.153,1.883-0.199,3.777-0.137,5.68l1.613,98.585l33.216,5.507c-0.188-7.462-0.366-15.453-0.54-23.973
					s-0.336-17.112-0.499-25.775s-0.326-17.26-0.499-25.775c-0.173-8.52-0.387-16.516-0.646-23.983
					c-0.127-1.104-0.158-2.021-0.102-2.743c0.087-1.089,0.26-2.153,0.524-3.191c0.26-1.038,0.651-1.919,1.171-2.642
					c0.519-0.728,1.211-1.293,2.061-1.7c0.85-0.407,1.878-0.56,3.079-0.463c1.415,0.112,2.789,0.514,4.123,1.206
					c1.334,0.692,2.55,1.552,3.644,2.591c1.089,1.038,1.995,2.148,2.718,3.339c0.728,1.191,1.222,2.346,1.486,3.461L-292.112-39.736
					z"/>
					<path fill="url(#SVGID_3_)" d="M-200.928-24.406c1.445-1.593,2.901-3.186,4.377-4.779c1.481-1.593,2.942-3.186,4.382-4.779
					c-0.881-3.257-2.423-6.444-4.627-9.559c-2.209-3.115-4.835-5.945-7.889-8.485c-3.054-2.545-6.403-4.632-10.047-6.26
					c-3.639-1.629-7.304-2.55-10.989-2.759c-11.839-0.672-19.341,3.71-22.512,13.152c-0.509-1.054-1.018-2.026-1.537-2.932
					s-1.145-1.776-1.878-2.621c-0.534-0.616-1.339-1.481-2.413-2.596c-1.074-1.12-2.433-2.24-4.077-3.349
					c-1.639-1.12-3.593-2.102-5.858-2.962c-2.265-0.855-4.917-1.369-7.966-1.547c-4.82-0.275-9.019,0.361-12.587,1.909
					c-3.573,1.547-6.561,3.761-8.968,6.652c-2.402,2.886-4.25,6.332-5.548,10.342s-2.082,8.373-2.346,13.096
					c-0.066,1.16-0.132,2.927-0.193,5.293c-0.071,2.362-0.01,5.085,0.173,8.154c0.178,3.074,0.489,6.372,0.926,9.895
					c0.443,3.527,1.13,7.065,2.066,10.617c0.931,3.553,2.158,6.973,3.68,10.266s3.395,6.245,5.629,8.851
					c2.234,2.606,4.901,4.723,8.011,6.362c3.105,1.634,6.713,2.57,10.826,2.804c2.128,0.117,4.163,0,6.103-0.366
					c1.939-0.361,3.741-0.84,5.416-1.44c1.664-0.596,3.202-1.257,4.591-1.98c1.39-0.723,2.606-1.42,3.639-2.087l0.473,8.556
					l32.941,0.346l-2.377-57.433c-0.071-1.242-0.051-2.555,0.061-3.929c0.112-1.379,0.377-2.621,0.799-3.726
					c0.422-1.11,1.074-2,1.97-2.677c0.886-0.682,2.077-0.977,3.568-0.891c1.42,0.081,2.799,0.489,4.143,1.222
					c1.349,0.733,2.575,1.624,3.69,2.667c1.11,1.049,2.041,2.194,2.789,3.441C-201.742-26.691-201.223-25.515-200.928-24.406z
					 M-251.607,5.726c-0.316,0.565-0.855,1.267-1.613,2.097s-1.914,1.201-3.476,1.115c-1.914-0.112-3.69-1.013-5.339-2.708
					c-1.649-1.7-3.044-4.001-4.194-6.912c-1.15-2.906-2-6.383-2.55-10.424c-0.555-4.041-0.692-8.459-0.422-13.254
					c0.183-3.125,0.534-5.563,1.059-7.319c0.529-1.756,1.135-3.054,1.822-3.889c0.692-0.835,1.395-1.323,2.112-1.466
					c0.718-0.143,1.359-0.193,1.929-0.163c1.7,0.097,3.492,0.748,5.385,1.949c1.883,1.201,3.217,3.135,3.99,5.802L-251.607,5.726z" />
					<path fill="url(#SVGID_4_)" d="M-179.382-72.107c0.875-0.774,2.031-1.435,3.466-1.975c1.435-0.545,2.901-0.957,4.408-1.242
					c1.496-0.285,2.886-0.478,4.169-0.59c1.283-0.107,2.173-0.158,2.667-0.143c2.555,0.071,4.54,0.804,5.96,2.189
					c1.415,1.39,2.494,3.222,3.247,5.502c0.753,2.275,1.283,4.912,1.588,7.904c0.305,2.998,0.626,6.133,0.957,9.421l0.234,2.957
					c-1.018-1.486-2.097-2.886-3.237-4.189c-1.13-1.308-2.54-2.438-4.214-3.395c-1.68-0.962-3.7-1.746-6.057-2.362
					c-2.367-0.611-5.253-0.967-8.658-1.064c-4.616-0.132-8.52,0.524-11.722,1.96c-3.201,1.44-5.833,3.492-7.899,6.164
					c-2.066,2.672-3.593,5.869-4.591,9.589c-0.993,3.721-1.552,7.798-1.68,12.236c-0.061,2.112-0.01,4.225,0.143,6.342l4.189,58.543
					l32.621-0.596l-3.863-55.153c-0.056-0.438-0.097-0.86-0.122-1.262c-0.025-0.397-0.031-0.819-0.015-1.252
					c0.02-0.947,0.249-2.036,0.672-3.257c0.428-1.227,1.013-2.377,1.751-3.446c0.743-1.069,1.603-1.96,2.581-2.657
					c0.982-0.702,2-1.033,3.069-1.003c1.557,0.041,3.176,0.524,4.856,1.446c1.68,0.921,2.881,2.306,3.614,4.143l4.55,64.676
					l33.257-0.692l-5.909-84.15c-0.173-1.461-0.341-3.14-0.494-5.039c-0.163-1.899-0.387-3.904-0.682-6.026
					c-0.295-2.117-0.692-4.331-1.201-6.642c-0.499-2.306-1.14-4.601-1.934-6.876c-2.382-8.515-6.551-14.913-12.501-19.199
					c-5.955-4.281-13.325-6.551-22.131-6.8c-5.319-0.153-9.925,0.575-13.804,2.173c-3.878,1.598-7.686,4.204-11.411,7.813
					L-179.382-72.107z"/>
					<path fill="url(#SVGID_5_)" d="M-89.186-16.593c-2.27,0.02-4.469,0.473-6.586,1.364c-2.128,0.891-4.001,2.122-5.619,3.7
					s-2.916,3.466-3.894,5.655c-0.972,2.194-1.451,4.596-1.43,7.217c0.031,4.148,0.947,7.691,2.749,10.622
					c1.797,2.932,4.245,5.314,7.35,7.146c3.105,1.832,6.739,3.166,10.897,4.006s8.658,1.242,13.483,1.201
					c3.833-0.031,7.828-0.428,11.971-1.191c4.148-0.758,8.449-1.924,12.913-3.487c4.754,8.256,10.032,16.201,15.85,23.836
					c5.813,7.63,12.114,14.328,18.909,20.095C-5.804,69.339,1.423,73.94,9.078,77.37c7.665,3.431,15.646,5.115,23.953,5.049
					c3.054-0.025,6.138-0.305,9.263-0.84c3.115-0.534,6.271-1.359,9.457-2.479L37.775-56.049l-35.15,0.285l2.168,18.104
					c-2.463,2.423-5.141,4.973-8.032,7.655c-2.891,2.677-5.955,5.38-9.197,8.098s-6.632,5.385-10.159,7.996
					s-7.095,5.024-10.699,7.238c-2.021-4.423-3.853-8.831-5.482-13.218c-1.639-4.393-3.039-8.673-4.204-12.852
					c-1.171-4.174-2.097-8.169-2.764-11.987c-0.667-3.812-1.018-7.36-1.043-10.633l-25.775,0.209
					c0.031,3.344,0.433,7.217,1.211,11.615c0.784,4.398,1.888,9.116,3.313,14.165s3.191,10.363,5.293,15.951
					s4.494,11.243,7.166,16.975c-4.107,1.049-7.94,1.593-11.488,1.619c-1.705,0.015-3.41-0.081-5.115-0.285
					c0.27-1.242,0.402-2.662,0.392-4.26c-0.02-2.402-0.499-4.657-1.44-6.759c-0.942-2.102-2.199-3.929-3.772-5.482
					c-1.578-1.552-3.41-2.774-5.517-3.665C-84.615-16.175-86.839-16.613-89.186-16.593z M-25.283,9.309
					c5.935-3.395,11.584-7.1,16.949-11.106c5.36-4.011,10.622-8.261,15.763-12.74l7.681,66.86c-3.13-0.56-6.408-2.077-9.839-4.56
					c-3.425-2.484-6.897-5.66-10.404-9.523c-3.512-3.863-6.973-8.276-10.383-13.234C-18.931,20.049-22.189,14.817-25.283,9.309z"/>
					<path fill="url(#SVGID_6_)" d="M113.094-35.588c-1.344-3.522-3.339-6.759-5.975-9.716c-2.637-2.957-5.609-5.517-8.928-7.686
					c-3.308-2.168-6.82-3.833-10.526-5.003s-7.299-1.69-10.77-1.552c-4.469,0.168-8.235,1.023-11.31,2.56
					c-3.064,1.542-5.558,3.619-7.482,6.245c-1.924,2.621-3.278,5.767-4.062,9.442c-0.784,3.67-1.089,7.686-0.926,12.053
					c0.071,1.888,0.254,3.777,0.54,5.66l13.234,97.704l33.633,1.547c-1.069-7.385-2.189-15.3-3.369-23.739
					c-1.171-8.439-2.351-16.954-3.532-25.536c-1.181-8.587-2.362-17.102-3.543-25.541c-1.171-8.439-2.331-16.348-3.461-23.734
					c-0.254-1.084-0.397-1.99-0.428-2.718c-0.041-1.089,0.01-2.168,0.143-3.227c0.132-1.064,0.417-1.985,0.855-2.764
					c0.428-0.784,1.049-1.425,1.843-1.929c0.794-0.504,1.802-0.779,3.003-0.825c1.425-0.056,2.83,0.183,4.245,0.713
					c1.405,0.529,2.708,1.242,3.919,2.143c1.201,0.901,2.24,1.899,3.095,2.993c0.855,1.099,1.486,2.184,1.883,3.263L113.094-35.588z
					"/>
					<path fill="url(#SVGID_7_)" d="M153.405,32.03c5.599-0.331,10.77-0.952,15.514-1.858c4.754-0.901,8.877-2.463,12.368-4.678
					c3.492-2.214,6.26-5.334,8.296-9.355c2.036-4.021,3.135-9.319,3.319-15.89c1.761-0.249,3.828-0.336,6.22-0.265
					c2.392,0.076,4.835,0.239,7.34,0.494c2.504,0.249,4.886,0.56,7.146,0.937c2.27,0.377,4.123,0.774,5.568,1.196l-4.408-20.186
					c-4.062-1.359-8.103-2.285-12.114-2.774c-4.011-0.489-7.828-0.697-11.452-0.626c-0.55-3.247-1.344-6.607-2.362-10.083
					c-1.028-3.476-2.402-6.82-4.123-10.032c-1.731-3.217-3.858-6.24-6.413-9.075c-2.555-2.84-5.64-5.278-9.243-7.324
					c-3.604-2.041-7.838-3.573-12.704-4.596c-4.866-1.023-10.414-1.344-16.644-0.972c-6.311,0.377-11.819,1.166-16.511,2.357
					c-4.693,1.191-8.551,3.156-11.595,5.889c-3.034,2.733-5.232,6.454-6.586,11.167c-1.354,4.708-1.802,10.77-1.364,18.181
					c0.295,4.866,0.865,9.716,1.731,14.552c0.855,4.83,2.087,9.442,3.705,13.829c1.608,4.387,3.685,8.434,6.22,12.149
					c2.535,3.71,5.589,6.881,9.162,9.513s7.747,4.622,12.521,5.975C141.77,31.908,147.236,32.402,153.405,32.03z M160.887-10.521
					c-3.135,2.301-5.955,4.769-8.469,7.396c-2.504,2.631-4.642,5.309-6.403,8.042c-1.731-1.649-3.237-3.69-4.52-6.128
					c-1.293-2.438-2.382-4.998-3.288-7.675c-0.906-2.682-1.619-5.298-2.128-7.859c-0.509-2.555-0.814-4.744-0.926-6.561
					c-0.051-0.799-0.102-1.98-0.153-3.543c-0.061-1.568,0.102-3.181,0.509-4.846c0.397-1.664,1.12-3.125,2.189-4.393
					c1.059-1.267,2.657-1.965,4.784-2.092c3.186-0.193,5.904,0.646,8.154,2.519c2.24,1.868,4.072,4.219,5.487,7.054
					c1.415,2.83,2.484,5.899,3.217,9.213C160.073-16.084,160.582-13.126,160.887-10.521z"/>
					<path fill="url(#SVGID_8_)" d="M251.659-13.905c0.143,1.593,0.193,3.146,0.153,4.647c-0.051,1.501-0.224,2.871-0.55,4.102
					c-0.316,1.232-0.814,2.245-1.486,3.039c-0.682,0.789-1.588,1.237-2.718,1.339c-1.771,0.158-3.41-0.504-4.937-1.97
					c-1.517-1.476-2.81-3.334-3.858-5.573l-11.014-58.64l-33.094,2.952l17.142,91.408l33.328-1.547l-1.771-9.05
					c3.298,2.626,6.719,4.408,10.261,5.334c3.532,0.926,7.004,1.237,10.404,0.931c8.408-0.748,14.313-3.685,17.702-8.81
					c3.4-5.125,4.723-11.859,3.98-20.191c-0.265-2.978-0.733-6.021-1.405-9.136c-0.672-3.12-1.374-6.164-2.097-9.131
					c-0.733-2.967-1.405-5.757-2.036-8.368c-0.621-2.611-1.018-4.896-1.201-6.851c-0.163-1.888,0.112-3.609,0.825-5.171
					c0.723-1.563,2.209-2.443,4.469-2.647c1.557-0.137,2.922-0.056,4.082,0.239c1.171,0.295,2.178,0.794,3.023,1.486
					s1.619,1.568,2.321,2.642c0.702,1.069,1.435,2.301,2.199,3.695c1.191-1.792,2.413-3.578,3.644-5.37
					c1.222-1.792,2.433-3.578,3.634-5.365c-1.527-3.446-3.502-6.612-5.925-9.498c-2.433-2.891-5.181-5.329-8.245-7.319
					c-3.064-1.995-6.322-3.492-9.752-4.499c-3.441-1.013-6.851-1.364-10.241-1.064c-5.069,0.453-9.172,1.552-12.277,3.288
					c-3.115,1.741-5.517,3.853-7.217,6.347c-1.69,2.489-2.759,5.248-3.196,8.286c-0.448,3.034-0.529,6.072-0.255,9.116
					c0.234,2.682,0.652,5.456,1.262,8.327c0.601,2.871,1.222,5.66,1.883,8.383c0.662,2.718,1.272,5.329,1.843,7.833
					C251.099-18.201,251.476-15.936,251.659-13.905z"/>
					<path fill="url(#SVGID_9_)" d="M310.232-89.581c0.743-0.896,1.741-1.71,2.972-2.448c1.232-0.738,2.514-1.349,3.858-1.843
					c1.334-0.494,2.555-0.875,3.665-1.16c1.11-0.28,1.914-0.453,2.402-0.509c2.535-0.31,4.56,0.122,6.057,1.298
					c1.507,1.176,2.728,2.84,3.665,4.998s1.731,4.703,2.372,7.63c0.641,2.932,1.374,5.996,2.189,9.192
					c-0.794-0.636-1.659-1.318-2.606-2.046c-0.947-0.728-2.158-1.39-3.624-1.98c-1.466-0.596-3.247-1.018-5.354-1.278
					c-2.107-0.254-4.744-0.193-7.92,0.193c-5.141,0.621-9.345,2.117-12.592,4.494c-3.258,2.372-5.762,5.314-7.513,8.826
					c-1.761,3.512-2.84,7.401-3.257,11.666c-0.407,4.265-0.346,8.602,0.183,13.01c0.275,2.24,0.743,5.243,1.415,9.009
					c0.672,3.772,1.659,7.808,2.972,12.124c1.313,4.311,3.034,8.612,5.161,12.898c2.128,4.291,4.825,8.088,8.083,11.391
					c3.257,3.308,7.126,5.863,11.605,7.665c4.469,1.807,9.742,2.341,15.799,1.603c1.832-0.219,3.471-0.636,4.896-1.252
					c1.425-0.611,2.698-1.354,3.807-2.219c1.11-0.87,2.158-1.802,3.146-2.799c0.987-1.003,1.985-2.041,3.003-3.115l2.077,8.327
					l32.789-5.624l-18.344-82.338c-0.387-1.42-0.804-3.059-1.242-4.912c-0.438-1.853-0.957-3.802-1.568-5.858
					c-0.601-2.051-1.323-4.179-2.168-6.388c-0.835-2.209-1.812-4.377-2.932-6.515c-3.624-8.067-8.52-13.793-14.689-17.188
					c-6.169-3.395-13.631-4.566-22.365-3.507c-2.677,0.326-5.049,0.819-7.116,1.471s-3.97,1.522-5.69,2.611
					c-1.731,1.089-3.38,2.407-4.937,3.955c-1.568,1.547-3.115,3.364-4.652,5.456L310.232-89.581z M350.452-12.643
					c-0.214,0.611-0.621,1.395-1.222,2.346c-0.601,0.952-1.669,1.522-3.227,1.71c-1.893,0.234-3.807-0.341-5.731-1.72
					c-1.914-1.384-3.705-3.4-5.344-6.062c-1.649-2.657-3.095-5.93-4.357-9.808c-1.252-3.878-2.168-8.205-2.749-12.974
					c-0.377-3.105-0.458-5.568-0.254-7.39c0.204-1.822,0.58-3.207,1.11-4.148c0.529-0.942,1.13-1.547,1.812-1.817
					c0.682-0.265,1.313-0.433,1.873-0.499c1.69-0.204,3.573,0.117,5.639,0.967c2.077,0.845,3.726,2.514,4.957,5.008L350.452-12.643z
					"/>
				</g>
				<g>
					<g>
						<path fill="#E6E7E8" d="M55.768-121.054l15.938,51.365l22.67-1.176l9.913-30.573l9.178,29.59l18.556-0.955l-15.938-51.36
						l-21.494,1.105L83.154-91.917l-9.333-30.07L55.768-121.054z"/>
						<path fill="#E6E7E8" d="M132.382-98.975c2.955,8.919,7.969,15.452,15.038,19.594c7.063,4.142,16.054,5.815,26.972,5.031
						c10.918-0.795,18.407-3.661,22.46-8.604c4.048-4.948,4.595-11.885,1.635-20.803c-2.955-8.902-7.964-15.424-15.027-19.566
						c-7.069-4.142-16.06-5.815-26.978-5.031c-10.918,0.795-18.401,3.661-22.455,8.604
						C129.974-114.802,129.427-107.877,132.382-98.975z M152.843-100.46c-1.48-4.462-1.535-7.947-0.155-10.465
						c1.381-2.513,4.103-3.921,8.173-4.214c4.081-0.293,7.588,0.657,10.526,2.861c2.949,2.203,5.158,5.534,6.638,10.001
						c1.486,4.484,1.546,7.991,0.177,10.532c-1.37,2.54-4.098,3.954-8.168,4.252c-4.076,0.293-7.588-0.679-10.537-2.905
						C156.543-92.624,154.329-95.976,152.843-100.46z"/>
						<path fill="#E6E7E8" d="M204.799-130.674l1.557,52.796l20.334-1.961l-4.297-36.57l21.764,34.891l15.59-1.508l-3.612-36.631
						l20.676,34.991l20.4-1.966l-34.974-49.576l-20.527,1.972l3.545,33.892l-20.157-32.29L204.799-130.674z"/>
					</g>
				</g>
				<path fill="#FFB600" d="M264.806-147.575c-11.771,1.449-25.54,2.718-40.293,4.186c-7.378,0.728-15.002,1.48-22.75,2.244
				c-7.76,0.646-15.643,1.302-23.526,1.958c-7.887,0.653-15.775,1.307-23.54,1.95c-7.77,0.676-15.396,1.112-22.786,1.658
				c-7.388,0.516-14.531,1.015-21.304,1.488c-6.803,0.431-13.106,1.013-19.156,1.24c-11.987,0.532-20.942,0.722-27.843,0.867
				c-6.908,0.155-10.855,0.243-10.855,0.243l-4.823-14.053c0,0,8.638,0.014,15.547,0.038c6.917,0.035,15.903,0.098,27.595-0.12
				c11.831-0.1,25.633-0.216,40.421-0.341c7.401-0.09,15.072-0.056,22.824-0.252c7.76-0.163,15.644-0.329,23.529-0.496
				c7.888-0.169,15.777-0.338,23.541-0.504c7.764-0.285,15.404-0.566,22.798-0.837c14.791-0.556,28.609-0.975,40.429-1.696
				c23.665-1.254,39.441-2.09,39.441-2.09S288.356-150.284,264.806-147.575z"/>
				<g>
					<path fill="none" d="M-156.619-33.155"/>
				</g>
			</g>
		</g>
	</symbol>
	<use xlink:href="#logo_playalong" width="882.994" height="234.512" id="XMLID_7_" x="-493.514" y="-152.091" transform="matrix(0.6543 0 0 -0.6543 322.9007 53.9274)" overflow="visible"/>
</svg>
