<?xml version="1.0" encoding="utf-8"?>
<!-- Generator: Adobe Illustrator 17.0.0, SVG Export Plug-In . SVG Version: 6.00 Build 0)  -->
<!DOCTYPE svg PUBLIC "-//W3C//DTD SVG 1.1//EN" "http://www.w3.org/Graphics/SVG/1.1/DTD/svg11.dtd">
<svg version="1.1" id="Layer_1" xmlns="http://www.w3.org/2000/svg" xmlns:xlink="http://www.w3.org/1999/xlink" x="0px" y="0px"
	 width="123.407px" height="65.249px" viewBox="0 0 123.407 65.249" enable-background="new 0 0 123.407 65.249"
	 xml:space="preserve">
<g>
	<path fill="none" d="M32.625,2.837C16.2,2.837,2.837,16.2,2.837,32.625S16.2,62.413,32.625,62.413
		c16.425,0,29.788-13.363,29.788-29.788S49.05,2.837,32.625,2.837z M32.625,57.347c-13.654,0-24.722-11.068-24.722-24.722
		c0-13.654,11.068-24.722,24.722-24.722c13.653,0,24.722,11.068,24.722,24.722C57.347,46.278,46.278,57.347,32.625,57.347z"/>
	<circle fill="#19D1BE" cx="32.625" cy="32.625" r="24.722"/>
	<path fill="#19D1BE" d="M65.044,27.964v1.045C63.239,12.716,49.392,0,32.625,0C14.635,0,0,14.635,0,32.625
		c0,17.989,14.635,32.625,32.625,32.625c16.767,0,30.614-12.716,32.42-29.009v1.045H94.26v14.387h9.321V37.285h10.505v14.387h9.321
		V27.964H65.044z M32.625,62.413C16.2,62.413,2.837,49.05,2.837,32.625S16.2,2.837,32.625,2.837
		c16.425,0,29.788,13.363,29.788,29.788S49.05,62.413,32.625,62.413z"/>
</g>
</svg>
