<?xml version="1.0" encoding="utf-8"?>
<!-- Generator: Adobe Illustrator 17.0.0, SVG Export Plug-In . SVG Version: 6.00 Build 0)  -->
<!DOCTYPE svg PUBLIC "-//W3C//DTD SVG 1.1//EN" "http://www.w3.org/Graphics/SVG/1.1/DTD/svg11.dtd">
<svg version="1.1" id="Layer_1" xmlns="http://www.w3.org/2000/svg" xmlns:xlink="http://www.w3.org/1999/xlink" x="0px" y="0px"
	 width="125.5px" height="125.5px" viewBox="0 0 125.5 125.5" enable-background="new 0 0 125.5 125.5" xml:space="preserve">
<g>
	<path fill="none" d="M62.75,33.121c-16.337,0-29.629,13.291-29.629,29.628c0,8.286,3.423,15.784,8.924,21.167
		c2.011-1.319,4.318-2.24,6.415-3.065c3.243-1.276,6.052-2.381,6.902-4.448c0.135-1.567,0.125-2.766,0.113-4.15
		c-0.002-0.255-0.004-0.514-0.005-0.78c-1.221-1.106-2.561-3.884-2.978-6.225c-0.89-0.365-2.055-1.415-2.409-4.368
		c-0.176-1.457,0.303-2.536,0.906-3.181c-1.655-6.724-1.218-11.811,1.3-15.13c2.088-2.752,5.561-4.191,10.32-4.279
		c3.175,0,5.507,0.853,6.652,2.414c2.235,0.406,3.926,1.511,5.03,3.289c2.714,4.371,0.977,11.328,0.248,13.734
		c0.59,0.646,1.052,1.713,0.88,3.152c-0.356,2.951-1.519,4.002-2.409,4.368c-0.414,2.347-1.721,5.118-2.909,6.22
		c-0.001,0.275-0.004,0.543-0.006,0.805c-0.012,1.377-0.023,2.572,0.111,4.131c0.849,2.068,3.646,3.172,6.877,4.447
		c2.086,0.823,4.379,1.741,6.38,3.056c5.496-5.382,8.915-12.876,8.915-21.158C92.379,46.413,79.087,33.121,62.75,33.121z"/>
	<path fill="#0A7ECC" d="M116.748,52.49c-2.256-0.631-4.488-0.52-6.671,0.327c-3.256,1.264-5.352,3.651-6.487,6.859
		c-1.541,0-3.06,0-4.573,0c0.085,1.015,0.139,2.038,0.139,3.074c0,1.524-0.105,3.024-0.288,4.499c1.715,0,3.416,0,5.104,0
		c2.811,5.534,8.266,7.086,12.758,5.917c4.58-1.193,7.885-5.477,7.92-10.314C124.685,58.152,121.356,53.779,116.748,52.49z"/>
	<path fill="#0A7ECC" d="M58.948,98.958c0,1.569,0,3.127,0,4.681c-3.563,2.075-4.771,3.144-5.834,5.304
		c-1.231,2.501-1.468,5.113-0.758,7.81c1.209,4.596,5.467,7.857,10.328,7.908c4.766,0.05,9.178-3.27,10.454-7.786
		c1.169-4.138,0.024-10.2-6.575-13.231c0-1.555,0-3.115,0-4.687c-1.253,0.131-2.525,0.2-3.812,0.2
		C61.466,99.157,60.198,99.088,58.948,98.958z"/>
	<path fill="#0A7ECC" d="M34.468,85.641c-1.154,1.142-2.312,2.289-3.465,3.431c-5.484-2.383-10.878,0.007-13.435,3.905
		c-2.69,4.102-2.262,9.547,1.126,13.273c3.242,3.565,8.838,4.511,13.078,2.158c2.156-1.196,3.763-2.942,4.737-5.222
		c1.257-2.942,1.135-5.884-0.085-8.683c1.167-1.162,2.318-2.308,3.463-3.449C37.897,89.444,36.08,87.629,34.468,85.641z"/>
	<path fill="#0A7ECC" d="M91.162,40.025c1.167-1.156,2.336-2.315,3.521-3.489c2.348,1.004,4.888,1.236,7.449,0.443
		c2.593-0.803,4.611-2.406,6.023-4.739c2.437-4.029,1.914-9.524-1.214-12.816c-3.52-3.705-8.781-4.558-13.23-2.104
		c-2.075,1.144-3.605,2.817-4.561,5.003c-1.281,2.929-1.207,5.867-0.069,8.715c-1.146,1.163-2.279,2.312-3.408,3.457
		C87.695,36.137,89.534,37.992,91.162,40.025z"/>
	<path fill="#0A7ECC" d="M26.55,58.889c-1.595,0-3.179,0-4.755,0c-2.329-5.543-7.704-7.886-12.866-6.592
		c-4.246,1.065-8.015,5.078-8.08,10.299c-0.064,5.203,3.593,9.373,7.888,10.539c4.602,1.25,10.436-0.483,13.098-6.571
		c1.564,0,3.139,0,4.708,0c-0.131-1.254-0.201-2.526-0.201-3.815C26.343,61.445,26.416,60.158,26.55,58.889z"/>
	<path fill="#0A7ECC" d="M85.792,90.914c1.149,1.097,2.286,2.181,3.4,3.245c-2.669,6.275,0.3,11.659,4.055,13.927
		c4.358,2.633,9.754,2.003,13.297-1.539c3.508-3.508,4.173-8.959,1.619-13.223c-2.236-3.731-7.215-6.817-13.652-4.283
		c-1.163-1.147-2.312-2.281-3.464-3.418C89.478,87.559,87.719,89.334,85.792,90.914z"/>
	<path fill="#0A7ECC" d="M66.578,26.546c0-1.598,0-3.208,0-4.794c5.691-2.375,7.725-7.733,6.726-12.393
		c-0.993-4.631-4.957-8.319-10.236-8.513c-4.813-0.177-9.28,2.98-10.643,7.606c-0.706,2.398-0.642,4.79,0.291,7.129
		c1.183,2.963,3.344,4.963,6.215,6.204c0,1.593,0,3.176,0,4.76c1.256-0.131,2.529-0.201,3.819-0.201
		C64.043,26.344,65.319,26.414,66.578,26.546z"/>
	<path fill="#0A7ECC" d="M39.843,34.48c-1.124-1.132-2.251-2.268-3.375-3.4c2.689-6.522-0.918-11.891-4.606-13.949
		c-4.093-2.284-9.507-1.574-12.834,1.757c-3.469,3.474-4.23,8.75-1.854,12.96c1.2,2.125,2.915,3.723,5.166,4.659
		c2.929,1.218,5.886,1.149,8.716-0.116c1.154,1.16,2.292,2.303,3.428,3.444C36.082,37.872,37.878,36.076,39.843,34.48z"/>
	<path fill="#0A7ECC" d="M70.207,76.405c-0.134-1.56-0.124-2.754-0.111-4.131c0.002-0.262,0.005-0.53,0.006-0.805
		c1.188-1.102,2.495-3.872,2.909-6.22c0.889-0.366,2.053-1.417,2.409-4.368c0.172-1.439-0.291-2.506-0.88-3.152
		c0.729-2.406,2.467-9.364-0.248-13.734c-1.104-1.778-2.795-2.883-5.03-3.289c-1.145-1.561-3.477-2.414-6.652-2.414
		c-4.759,0.087-8.231,1.527-10.32,4.279c-2.519,3.318-2.955,8.406-1.3,15.13c-0.603,0.645-1.082,1.724-0.906,3.181
		c0.354,2.952,1.519,4.003,2.409,4.368c0.417,2.341,1.757,5.119,2.978,6.225c0.001,0.266,0.003,0.525,0.005,0.78
		c0.012,1.383,0.022,2.583-0.113,4.15c-0.85,2.067-3.659,3.172-6.902,4.448c-2.097,0.825-4.404,1.746-6.415,3.065
		c5.346,5.23,12.653,8.463,20.705,8.463c8.056,0,15.367-3.236,20.713-8.471c-2.001-1.314-4.294-2.233-6.38-3.056
		C73.853,79.577,71.056,78.473,70.207,76.405z"/>
	<path fill="#0A7ECC" d="M99.017,59.676c-0.622-7.397-3.461-14.169-7.855-19.651c-1.629-2.032-3.468-3.888-5.488-5.531
		c-5.331-4.333-11.903-7.193-19.096-7.948c-1.259-0.132-2.535-0.202-3.828-0.202c-1.29,0-2.564,0.07-3.819,0.201
		c-7.188,0.753-13.758,3.608-19.088,7.936c-1.966,1.596-3.762,3.391-5.358,5.356c-4.321,5.321-7.175,11.877-7.935,19.052
		c-0.134,1.269-0.207,2.557-0.207,3.861c0,1.288,0.07,2.561,0.201,3.815c0.751,7.183,3.603,13.748,7.924,19.076
		c1.612,1.988,3.429,3.803,5.419,5.413c5.327,4.311,11.885,7.155,19.061,7.904c1.25,0.13,2.518,0.199,3.802,0.199
		c1.287,0,2.559-0.069,3.812-0.2c7.251-0.758,13.874-3.653,19.229-8.043c1.927-1.58,3.686-3.354,5.255-5.291
		c4.175-5.155,6.966-11.467,7.822-18.374c0.183-1.476,0.288-2.975,0.288-4.499C99.156,61.714,99.102,60.69,99.017,59.676z
		 M83.463,83.908c-5.346,5.235-12.658,8.471-20.713,8.471c-8.051,0-15.359-3.233-20.705-8.463
		c-5.501-5.382-8.924-12.881-8.924-21.167c0-16.337,13.292-29.628,29.629-29.628c16.337,0,29.628,13.291,29.628,29.628
		C92.379,71.031,88.959,78.526,83.463,83.908z"/>
</g>
</svg>
